# Created by Kenney (www.kenney.nl)

mtllib blockMoving.mtl

g blockMoving

v 0.4 1.295114E-26 0.5
v -0.4 1.295114E-26 0.5
v 0.4 0.07078588 0.5
v -0.4 0.07078588 0.5
v -0.4 1.295114E-26 -0.5
v 0.4 1.295114E-26 -0.5
v -0.4 0.07078588 -0.5
v 0.4 0.07078588 -0.5
v 0.5 0.07078588 -0.4
v 0.5 1.295114E-26 -0.4
v 0.5 0.07078588 0.4
v 0.5 1.295114E-26 0.4
v -0.5 1.295114E-26 -0.4
v -0.5 0.07078588 -0.4
v -0.5 1.295114E-26 0.4
v -0.5 0.07078588 0.4
v 0.4 0.1792141 0.5
v -0.1436884 0.1792141 0.5
v 0.4 0.25 0.5
v -0.2436884 0.1792141 0.5
v -0.4 0.1792141 0.5
v -0.4 0.25 0.5
v 0.5 0.25 -0.4
v 0.5 0.1792141 -0.4
v 0.5 0.25 0.4
v 0.5 0.1792141 0.4
v -0.4 0.1792141 -0.5
v 0.4 0.1792141 -0.5
v -0.4 0.25 -0.5
v 0.4 0.25 -0.5
v -0.5 0.1792141 -0.4
v -0.5 0.25 -0.4
v -0.5 0.1792141 0.4
v -0.5 0.25 0.4
v 0.4866025 0.07078588 -0.45
v 0.4866025 0 -0.45
v -0.45 0 0.4866025
v -0.45 0.07078588 0.4866025
v -0.4866025 0 0.45
v -0.4866025 0.07078588 0.45
v 0.45 0 -0.4866025
v 0.45 0.07078588 -0.4866025
v 0.4866025 0.07078588 0.45
v 0.4866025 0 0.45
v 0.45 0.07078588 0.4866025
v 0.45 0 0.4866025
v -0.45 0 -0.4866025
v -0.45 0.07078588 -0.4866025
v 0.4866025 0.25 0.45
v 0.4866025 0.1792141 0.45
v 0.45 0.25 0.4866025
v 0.45 0.1792141 0.4866025
v -0.4866025 0 -0.45
v -0.4866025 0.07078588 -0.45
v -0.4866025 0.1792141 0.45
v -0.4866025 0.25 0.45
v 0.45 0.1792141 -0.4866025
v 0.45 0.25 -0.4866025
v 0.4866025 0.25 -0.45
v 0.4866025 0.1792141 -0.45
v -0.45 0.1792141 0.4866025
v -0.45 0.25 0.4866025
v -0.4866025 0.1792141 -0.45
v -0.4866025 0.25 -0.45
v -0.45 0.1792141 -0.4866025
v -0.45 0.25 -0.4866025
v 0.4 0.25 -0.3868347
v 0.4 0.25 0.3868347
v 0.3982362 0.25 -0.396945
v 0.3972178 0.25 -0.3972178
v 0.396945 0.25 -0.3982362
v 0.3868347 0.25 -0.4
v -0.3868347 0.25 -0.4
v 0.3982362 0.25 0.396945
v 0.3972178 0.25 0.3972178
v 0.396945 0.25 0.3982362
v 0.3868347 0.25 0.4
v -0.3868347 0.25 0.4
v -0.396945 0.25 -0.3982362
v -0.3972178 0.25 -0.3972178
v -0.3982362 0.25 -0.396945
v -0.4 0.25 -0.3868347
v -0.4 0.25 0.3868347
v -0.396945 0.25 0.3982362
v -0.3972178 0.25 0.3972178
v -0.3982362 0.25 0.396945
v -0.45 0.07078588 0.3934174
v -0.4417737 0.07078588 0.4241181
v -0.45 0.07078588 -0.3934174
v -0.4241181 0.07078588 0.4417737
v -0.4417737 0.07078588 -0.4241181
v -0.4241181 0.07078588 -0.4417737
v -0.3934174 0.07078588 0.45
v 0.3934174 0.07078588 0.45
v -0.3934174 0.07078588 -0.45
v 0.3934174 0.07078588 -0.45
v 0.4241181 0.07078588 0.4417737
v 0.4417737 0.07078588 0.4241181
v 0.4241181 0.07078588 -0.4417737
v 0.4417737 0.07078588 -0.4241181
v 0.45 0.07078588 0.3934174
v 0.45 0.07078588 -0.3934174
v -0.45 0.1792141 -0.3934174
v -0.4417737 0.1792141 -0.4241181
v -0.45 0.1792141 0.3934174
v -0.4241181 0.1792141 -0.4417737
v -0.4417737 0.1792141 0.4241181
v -0.4241181 0.1792141 0.4417737
v -0.3934174 0.1792141 -0.45
v 0.3934174 0.1792141 -0.45
v -0.3934174 0.1792141 0.45
v -0.2436884 0.1792141 0.45
v -0.1436884 0.1792141 0.45
v 0.3934174 0.1792141 0.45
v 0.4241181 0.1792141 -0.4417737
v 0.4417737 0.1792141 -0.4241181
v 0.4241181 0.1792141 0.4417737
v 0.4417737 0.1792141 0.4241181
v 0.45 0.1792141 -0.3934174
v 0.45 0.1792141 0.3934174
v 0.3 0.25 -0.3
v 0.3 0.25 0.3
v -0.3 0.25 -0.3
v -0.3 0.25 0.3

vn 0 0 1
vn 0 0 -1
vn 1 0 0
vn -1 0 0
vn 0.8660254 0 -0.5
vn 0.9659258 0 -0.258819
vn -0.5 0 0.8660254
vn -0.258819 0 0.9659258
vn -0.8660254 0 0.5
vn -0.9659258 0 0.258819
vn 0.5 0 -0.8660254
vn 0.258819 0 -0.9659258
vn 0.8660254 0 0.5
vn 0.5 0 0.8660254
vn 0.9659258 0 0.258819
vn -0.5 0 -0.8660254
vn -0.258819 0 -0.9659258
vn 0.258819 0 0.9659258
vn -0.8660254 0 -0.5
vn -0.9659258 0 -0.258819
vn 0 -1 0
vn 0 1 0

vt 15.74803 5.098875E-25
vt -15.74803 5.098875E-25
vt 15.74803 2.786846
vt -15.74803 2.786846
vt 15.74803 7.055673
vt -5.657025 7.055673
vt 15.74803 9.84252
vt -9.594033 7.055673
vt -15.74803 7.055673
vt -15.74803 9.84252
vt 12.15451 2.786846
vt 12.15451 0
vt 10.11657 2.786846
vt 10.11657 5.098875E-25
vt -12.15451 0
vt -12.15451 2.786846
vt -10.11657 5.098875E-25
vt -10.11657 2.786846
vt -1.018973 0
vt -1.018973 2.786846
vt 1.018973 0
vt 1.018973 2.786846
vt 1.018973 9.84252
vt 1.018973 7.055673
vt -1.018973 9.84252
vt -1.018973 7.055673
vt 10.11657 7.055673
vt 10.11657 9.84252
vt 12.15451 7.055673
vt 12.15451 9.84252
vt -10.11657 7.055673
vt -12.15451 7.055673
vt -10.11657 9.84252
vt -12.15451 9.84252
vt 19.68504 15.74803
vt 19.68504 -15.74803
vt 19.15758 17.71654
vt 19.15758 -17.71654
vt 17.71654 19.15758
vt 17.71654 -19.15758
vt 15.74803 19.68504
vt 15.74803 -19.68504
vt -15.74803 19.68504
vt -15.74803 -19.68504
vt -17.71654 19.15758
vt -17.71654 -19.15758
vt -19.15758 17.71654
vt -19.15758 -17.71654
vt -19.68504 15.74803
vt -19.68504 -15.74803
vt -15.74803 -15.22971
vt -15.74803 15.22971
vt -15.67859 -15.62776
vt -15.6385 -15.6385
vt -15.62776 -15.67859
vt -15.22971 -15.74803
vt 15.22971 -15.74803
vt -15.67859 15.62776
vt -15.6385 15.6385
vt -15.62776 15.67859
vt -15.22971 15.74803
vt 15.22971 15.74803
vt 15.62776 -15.67859
vt 15.6385 -15.6385
vt 15.67859 -15.62776
vt 15.74803 -15.22971
vt 15.74803 15.22971
vt 15.62776 15.67859
vt 15.6385 15.6385
vt 15.67859 15.62776
vt 17.71654 15.48887
vt 17.39267 16.69756
vt 17.71654 -15.48887
vt 16.69756 17.39267
vt 17.39267 -16.69756
vt 16.69756 -17.39267
vt 15.48887 17.71654
vt -15.48887 17.71654
vt 15.48887 -17.71654
vt -15.48887 -17.71654
vt -16.69756 17.39267
vt -17.39267 16.69756
vt -16.69756 -17.39267
vt -17.39267 -16.69756
vt -17.71654 15.48887
vt -17.71654 -15.48887
vt -9.594033 17.71654
vt -9.594033 19.68504
vt -5.657025 17.71654
vt -5.657025 19.68504
vt -11.81102 -11.81102
vt -11.81102 11.81102
vt 11.81102 -11.81102
vt 11.81102 11.81102
vt 15.48887 2.786846
vt -15.48887 2.786846
vt 15.48887 7.055673
vt -15.48887 7.055673
vt 11.62705 2.786846
vt 10.37573 2.786846
vt 11.62705 7.055673
vt 10.37573 7.055673
vt 0.4915136 7.055673
vt 0.4915136 2.786846
vt -0.4915136 7.055673
vt -0.4915136 2.786846
vt -10.37573 7.055673
vt -10.37573 2.786846
vt -11.62705 7.055673
vt -11.62705 2.786846

usemtl gold

f 3/3/1 2/2/1 1/1/1
f 2/2/1 3/3/1 4/4/1
f 7/3/2 6/2/2 5/1/2
f 6/2/2 7/3/2 8/4/2
f 11/4/3 10/1/3 9/3/3
f 10/1/3 11/4/3 12/2/3
f 15/1/4 14/4/4 13/2/4
f 14/4/4 15/1/4 16/3/4
f 19/7/1 18/6/1 17/5/1
f 18/6/1 19/7/1 20/8/1
f 20/8/1 19/7/1 21/9/1
f 21/9/1 19/7/1 22/10/1
f 25/10/3 24/5/3 23/7/3
f 24/5/3 25/10/3 26/9/3
f 29/7/2 28/9/2 27/5/2
f 28/9/2 29/7/2 30/10/2
f 33/5/4 32/10/4 31/9/4
f 32/10/4 33/5/4 34/7/4
f 9/13/6 36/12/5 35/11/5
f 36/12/5 9/13/6 10/14/6
f 2/17/8 38/16/7 37/15/7
f 38/16/7 2/17/8 4/18/8
f 37/21/7 40/20/9 39/19/9
f 40/20/9 37/21/7 38/22/7
f 39/12/9 16/13/10 15/14/10
f 16/13/10 39/12/9 40/11/9
f 6/17/12 42/16/11 41/15/11
f 42/16/11 6/17/12 8/18/12
f 45/20/14 44/21/13 43/22/13
f 44/21/13 45/20/14 46/19/14
f 43/16/13 12/17/15 11/18/15
f 12/17/15 43/16/13 44/15/13
f 35/20/5 41/21/11 42/22/11
f 41/21/11 35/20/5 36/19/5
f 48/11/16 5/14/17 47/12/16
f 5/14/17 48/11/16 7/13/17
f 45/11/14 1/14/18 46/12/14
f 1/14/18 45/11/14 3/13/18
f 51/25/14 50/24/13 49/23/13
f 50/24/13 51/25/14 52/26/14
f 13/17/20 54/16/19 53/15/19
f 54/16/19 13/17/20 14/18/20
f 53/21/19 48/20/16 47/19/16
f 48/20/16 53/21/19 54/22/19
f 55/29/9 34/28/10 33/27/10
f 34/28/10 55/29/9 56/30/9
f 30/33/12 57/32/11 28/31/12
f 57/32/11 30/33/12 58/34/11
f 59/25/5 57/24/11 58/23/11
f 57/24/11 59/25/5 60/26/5
f 23/28/6 60/29/5 59/30/5
f 60/29/5 23/28/6 24/27/6
f 61/24/7 56/25/9 55/26/9
f 56/25/9 61/24/7 62/23/7
f 49/34/13 26/31/15 25/33/15
f 26/31/15 49/34/13 50/32/13
f 51/30/14 17/27/18 52/29/14
f 17/27/18 51/30/14 19/28/18
f 22/33/8 61/32/7 21/31/8
f 61/32/7 22/33/8 62/34/7
f 31/31/20 64/34/19 63/32/19
f 64/34/19 31/31/20 32/33/20
f 66/30/16 27/27/17 65/29/16
f 27/27/17 66/30/16 29/28/17
f 63/24/19 66/25/16 65/26/16
f 66/25/16 63/24/19 64/23/19
f 44/37/21 10/36/21 12/35/21
f 10/36/21 44/37/21 36/38/21
f 36/38/21 44/37/21 46/39/21
f 36/38/21 46/39/21 41/40/21
f 41/40/21 46/39/21 1/41/21
f 41/40/21 1/41/21 6/42/21
f 6/42/21 1/41/21 2/43/21
f 6/42/21 2/43/21 5/44/21
f 5/44/21 2/43/21 37/45/21
f 5/44/21 37/45/21 47/46/21
f 47/46/21 37/45/21 39/47/21
f 47/46/21 39/47/21 53/48/21
f 53/48/21 39/47/21 15/49/21
f 53/48/21 15/49/21 13/50/21
f 59/48/22 25/49/22 23/50/22
f 25/49/22 59/48/22 49/47/22
f 49/47/22 59/48/22 58/46/22
f 49/47/22 58/46/22 51/45/22
f 51/45/22 58/46/22 30/44/22
f 51/45/22 30/44/22 19/43/22
f 19/43/22 30/44/22 67/51/22
f 19/43/22 67/51/22 68/52/22
f 30/44/22 69/53/22 67/51/22
f 70/54/22 67/51/22 69/53/22
f 71/55/22 70/54/22 69/53/22
f 69/53/22 30/44/22 71/55/22
f 72/56/22 70/54/22 71/55/22
f 71/55/22 30/44/22 72/56/22
f 72/56/22 30/44/22 29/42/22
f 72/56/22 29/42/22 73/57/22
f 19/43/22 68/52/22 74/58/22
f 74/58/22 68/52/22 75/59/22
f 76/60/22 74/58/22 75/59/22
f 76/60/22 19/43/22 74/58/22
f 77/61/22 76/60/22 75/59/22
f 77/61/22 19/43/22 76/60/22
f 19/43/22 77/61/22 22/41/22
f 22/41/22 77/61/22 78/62/22
f 73/57/22 29/42/22 79/63/22
f 80/64/22 73/57/22 79/63/22
f 81/65/22 80/64/22 79/63/22
f 79/63/22 29/42/22 81/65/22
f 81/65/22 82/66/22 80/64/22
f 82/66/22 81/65/22 29/42/22
f 82/66/22 29/42/22 66/40/22
f 82/66/22 66/40/22 83/67/22
f 83/67/22 66/40/22 22/41/22
f 22/41/22 66/40/22 62/39/22
f 62/39/22 66/40/22 64/38/22
f 62/39/22 64/38/22 56/37/22
f 56/37/22 64/38/22 32/36/22
f 56/37/22 32/36/22 34/35/22
f 22/41/22 78/62/22 84/68/22
f 85/69/22 84/68/22 78/62/22
f 83/67/22 86/70/22 85/69/22
f 22/41/22 86/70/22 83/67/22
f 22/41/22 84/68/22 86/70/22
f 86/70/22 84/68/22 85/69/22
f 40/37/22 14/36/22 16/35/22
f 40/37/22 54/38/22 14/36/22
f 38/39/22 54/38/22 40/37/22
f 87/71/22 54/38/22 38/39/22
f 38/39/22 88/72/22 87/71/22
f 89/73/22 54/38/22 87/71/22
f 38/39/22 90/74/22 88/72/22
f 89/73/22 48/40/22 54/38/22
f 91/75/22 48/40/22 89/73/22
f 92/76/22 48/40/22 91/75/22
f 4/41/22 90/74/22 38/39/22
f 4/41/22 93/77/22 90/74/22
f 4/41/22 94/78/22 93/77/22
f 92/76/22 7/42/22 48/40/22
f 95/79/22 7/42/22 92/76/22
f 96/80/22 7/42/22 95/79/22
f 3/43/22 94/78/22 4/41/22
f 3/43/22 97/81/22 94/78/22
f 3/43/22 98/82/22 97/81/22
f 96/80/22 8/44/22 7/42/22
f 99/83/22 8/44/22 96/80/22
f 100/84/22 8/44/22 99/83/22
f 45/45/22 98/82/22 3/43/22
f 100/84/22 42/46/22 8/44/22
f 45/45/22 101/85/22 98/82/22
f 45/45/22 102/86/22 101/85/22
f 42/46/22 100/84/22 102/86/22
f 45/45/22 42/46/22 102/86/22
f 43/47/22 42/46/22 45/45/22
f 43/47/22 35/48/22 42/46/22
f 11/49/22 35/48/22 43/47/22
f 35/48/22 11/49/22 9/50/22
f 63/48/21 33/49/21 31/50/21
f 63/48/21 55/47/21 33/49/21
f 65/46/21 55/47/21 63/48/21
f 103/86/21 55/47/21 65/46/21
f 65/46/21 104/84/21 103/86/21
f 105/85/21 55/47/21 103/86/21
f 65/46/21 106/83/21 104/84/21
f 105/85/21 61/45/21 55/47/21
f 107/82/21 61/45/21 105/85/21
f 108/81/21 61/45/21 107/82/21
f 27/44/21 106/83/21 65/46/21
f 27/44/21 109/80/21 106/83/21
f 27/44/21 110/79/21 109/80/21
f 108/81/21 21/43/21 61/45/21
f 111/78/21 21/43/21 108/81/21
f 112/87/21 21/43/21 111/78/21
f 112/87/21 20/88/21 21/43/21
f 113/89/21 20/88/21 112/87/21
f 113/89/21 18/90/21 20/88/21
f 114/77/21 18/90/21 113/89/21
f 28/42/21 110/79/21 27/44/21
f 28/42/21 115/76/21 110/79/21
f 28/42/21 116/75/21 115/76/21
f 114/77/21 17/41/21 18/90/21
f 117/74/21 17/41/21 114/77/21
f 118/72/21 17/41/21 117/74/21
f 57/40/21 116/75/21 28/42/21
f 118/72/21 52/39/21 17/41/21
f 57/40/21 119/73/21 116/75/21
f 57/40/21 120/71/21 119/73/21
f 52/39/21 118/72/21 120/71/21
f 57/40/21 52/39/21 120/71/21
f 60/38/21 52/39/21 57/40/21
f 60/38/21 50/37/21 52/39/21
f 24/36/21 50/37/21 60/38/21
f 50/37/21 24/36/21 26/35/21
f 123/93/22 122/92/22 121/91/22
f 122/92/22 123/93/22 124/94/22

usemtl wood

f 114/97/1 93/96/1 94/95/1
f 93/96/1 114/97/1 111/98/1
f 111/98/1 114/97/1 113/6/1
f 111/98/1 113/6/1 112/8/1
f 117/101/14 94/100/18 97/99/14
f 94/100/18 117/101/14 114/102/18
f 117/105/14 98/104/13 118/103/13
f 98/104/13 117/105/14 97/106/14
f 118/109/13 101/108/15 120/107/15
f 101/108/15 118/109/13 98/110/13
f 120/98/3 102/95/3 119/97/3
f 102/95/3 120/98/3 101/96/3
f 119/102/6 100/99/5 116/101/5
f 100/99/5 119/102/6 102/100/6
f 116/105/5 99/104/11 115/103/11
f 99/104/11 116/105/5 100/106/5
f 110/107/12 99/110/11 96/108/12
f 99/110/11 110/107/12 115/109/11
f 109/97/2 96/96/2 95/95/2
f 96/96/2 109/97/2 110/98/2
f 106/101/16 95/100/17 92/99/16
f 95/100/17 106/101/16 109/102/17
f 91/104/19 106/105/16 92/106/16
f 106/105/16 91/104/19 104/103/19
f 89/108/20 104/109/19 91/110/19
f 104/109/19 89/108/20 103/107/20
f 87/95/4 103/98/4 89/96/4
f 103/98/4 87/95/4 105/97/4
f 88/99/9 105/102/10 87/100/10
f 105/102/10 88/99/9 107/101/9
f 90/104/7 107/105/9 88/106/9
f 107/105/9 90/104/7 108/103/7
f 111/107/8 90/110/7 93/108/8
f 90/110/7 111/107/8 108/109/7
f 70/54/22 68/52/22 67/51/22
f 68/52/22 70/54/22 75/59/22
f 75/59/22 70/54/22 72/56/22
f 75/59/22 72/56/22 77/61/22
f 77/61/22 72/56/22 121/91/22
f 121/91/22 72/56/22 73/57/22
f 122/92/22 77/61/22 121/91/22
f 121/91/22 73/57/22 123/93/22
f 77/61/22 122/92/22 78/62/22
f 123/93/22 73/57/22 124/94/22
f 78/62/22 122/92/22 124/94/22
f 78/62/22 124/94/22 73/57/22
f 78/62/22 73/57/22 80/64/22
f 78/62/22 80/64/22 85/69/22
f 85/69/22 80/64/22 82/66/22
f 85/69/22 82/66/22 83/67/22

usemtl _defaultMat

f 118/46/21 119/84/21 120/86/21
f 119/46/21 118/84/21 116/86/21
f 116/46/21 118/84/21 117/86/21
f 116/46/21 117/84/21 115/86/21
f 115/46/21 117/84/21 114/86/21
f 115/46/21 114/84/21 110/86/21
f 110/46/21 114/84/21 109/86/21
f 109/46/21 114/84/21 113/86/21
f 109/46/21 113/84/21 112/86/21
f 109/46/21 112/84/21 111/86/21
f 109/46/21 111/84/21 108/86/21
f 109/46/21 108/84/21 106/86/21
f 106/46/21 108/84/21 107/86/21
f 106/46/21 107/84/21 104/86/21
f 104/46/21 107/84/21 105/86/21
f 104/46/21 105/84/21 103/86/21

