# Created by Kenney (www.kenney.nl)

mtllib ladderBroken.mtl

g ladderBroken

v 0.11 -5.639933E-18 -0.04
v 0.19 -5.639933E-18 -0.04
v 0.11 1 -0.04
v 0.19 1 -0.04
v 0.19 -5.639933E-18 0.04
v 0.11 -5.639933E-18 0.04
v 0.19 1 0.04
v 0.11 1 0.04
v -0.11 -5.639933E-18 0.04
v -0.19 -5.639933E-18 0.04
v -0.11 1 0.04
v -0.19 1 0.04
v -0.19 -5.639933E-18 -0.04
v -0.19 1 -0.04
v -0.11 -5.639933E-18 -0.04
v -0.11 1 -0.04
v -0.11 0.9066665 -0.0164
v -0.11 0.09 -0.0164
v -0.11 0.9066665 0.0164
v -0.11 0.84 0.0164
v -0.11 0.84 -0.0164
v -0.11 0.09 0.0164
v -0.11 0.1566667 0.0164
v -0.11 0.6566666 -0.0164
v -0.11 0.6566666 0.0164
v -0.11 0.59 -0.0164
v -0.11 0.59 0.0164
v -0.11 0.34 0.0164
v -0.11 0.1566667 -0.0164
v -0.11 0.4066666 0.0164
v -0.11 0.34 -0.0164
v -0.11 0.4066666 -0.0164
v 0.11 0.09 0.0164
v 0.11 0.09 -0.0164
v 0.11 0.1566667 0.0164
v 0.11 0.9066665 -0.0164
v 0.11 0.1566667 -0.0164
v 0.11 0.34 -0.0164
v 0.11 0.34 0.0164
v 0.11 0.4066666 -0.0164
v 0.11 0.4066666 0.0164
v 0.11 0.9066665 0.0164
v 0.11 0.84 0.0164
v 0.11 0.59 -0.0164
v 0.11 0.6566666 -0.0164
v 0.11 0.59 0.0164
v 0.11 0.84 -0.0164
v 0.11 0.6566666 0.0164
v -3.483222E-14 0.34 -0.0164
v 0.01 0.4066666 -0.0164
v 3.086171E-14 0.9066665 0.0164
v -3.483222E-14 0.9066665 -0.0164
v 0.055 0.84 0.0164
v 0.055 0.84 -0.0164
v 0.01 0.4066666 0.0164
v 3.086171E-14 0.34 0.0164
v 0.01 0.84 -0.0164
v 0.045 0.9066665 0.0164
v 0.045 0.9066665 -0.0164
v -3.483222E-14 0.09 -0.0164
v -0.01 0.1566667 -0.0164
v 3.086171E-14 0.09 0.0164
v -0.01 0.1566667 0.0164
v -0.045 0.09 -0.0164
v -0.045 0.09 0.0164
v -0.055 0.1566667 -0.0164
v -0.055 0.1566667 0.0164
v 0.01 0.84 0.0164
v 0.055 0.4066666 0.0164
v 0.055 0.4066666 -0.0164
v 0.045 0.34 -0.0164
v 0.045 0.34 0.0164

vn 0 0 -1
vn 0 0 1
vn 0 1 0
vn -1 0 0
vn 1 0 0
vn 0 -1 0
vn 0.9889364 -0.1483406 0
vn -0.9889364 -0.1483404 0
vn 0.9889364 0.1483404 0
vn -0.9889364 -0.1483406 0
vn -0.9889364 0.1483406 0
vn 0.9889364 0.1483406 0

vt -4.330709 -2.220446E-16
vt -7.480315 -2.220446E-16
vt -4.330709 39.37008
vt -7.480315 39.37008
vt 7.480315 -2.220446E-16
vt 4.330709 -2.220446E-16
vt 7.480315 39.37008
vt 4.330709 39.37008
vt -7.480315 1.574803
vt -4.330709 1.574803
vt -7.480315 -1.574803
vt -4.330709 -1.574803
vt -1.574803 -2.220446E-16
vt -1.574803 39.37008
vt 1.574803 -2.220446E-16
vt 1.574803 39.37008
vt 4.330709 1.574803
vt 7.480315 1.574803
vt 4.330709 -1.574803
vt 7.480315 -1.574803
vt 0.6456693 35.69553
vt 0.6456693 3.543307
vt -0.6456693 35.69553
vt -0.6456693 33.07087
vt 0.6456693 33.07087
vt -0.6456693 3.543307
vt -0.6456693 6.16798
vt 0.6456693 25.85302
vt -0.6456693 25.85302
vt 0.6456693 23.22835
vt -0.6456693 23.22835
vt -0.6456693 13.38583
vt 0.6456693 6.16798
vt -0.6456693 16.0105
vt 0.6456693 13.38583
vt 0.6456693 16.0105
vt 4.330709 13.38583
vt 7.861408E-14 13.38583
vt 4.330709 16.0105
vt -0.3937008 16.0105
vt -1.215028E-12 0.6456693
vt 4.330709 0.6456693
vt 1.371347E-12 -0.6456693
vt 4.330709 -0.6456693
vt 4.330709 23.22835
vt -4.330709 23.22835
vt 4.330709 25.85302
vt -4.330709 25.85302
vt 2.165354 0.6456693
vt 2.165354 -0.6456693
vt 0.6456693 15.89176
vt 0.6456693 13.23773
vt -0.6456693 15.89176
vt -0.6456693 13.23773
vt 4.330709 33.07087
vt -0.3937008 33.07087
vt 4.330709 35.69553
vt 7.861408E-14 35.69553
vt -0.3937008 0.6456693
vt -0.3937008 -0.6456693
vt -4.330709 0.6456693
vt -1.771654 0.6456693
vt -4.330709 -0.6456693
vt -1.771654 -0.6456693
vt 7.861408E-14 3.543307
vt -4.330709 3.543307
vt 0.3937008 6.16798
vt -4.330709 6.16798
vt -0.6456693 3.504105
vt -0.6456693 6.158142
vt 0.6456693 3.504105
vt 0.6456693 6.158142
vt 2.165354 33.07087
vt 1.771654 35.69553
vt 0.6456693 3.766913
vt -0.6456693 3.766913
vt 0.6456693 6.420949
vt -0.6456693 6.420949
vt 0.3937008 33.07087
vt -4.330709 33.07087
vt -7.770532E-14 35.69553
vt -4.330709 35.69553
vt -0.6456693 32.38377
vt -0.6456693 35.0378
vt 0.6456693 32.38377
vt 0.6456693 35.0378
vt 4.330709 3.543307
vt -7.770532E-14 3.543307
vt 4.330709 6.16798
vt -0.3937008 6.16798
vt -2.165354 33.07087
vt -1.771654 35.69553
vt -7.770532E-14 13.38583
vt -4.330709 13.38583
vt 0.3937008 16.0105
vt -4.330709 16.0105
vt 0.3937008 0.6456693
vt 0.3937008 -0.6456693
vt 1.215028E-12 0.6456693
vt -1.371347E-12 -0.6456693
vt -1.771654 3.543307
vt -2.165354 6.16798
vt -2.165354 0.6456693
vt -2.165354 -0.6456693
vt 1.771654 3.543307
vt 2.165354 6.16798
vt -0.6456693 16.15457
vt 0.6456693 16.15457
vt -0.6456693 13.50054
vt 0.6456693 13.50054
vt -1.771654 13.38583
vt -2.165354 16.0105
vt 0.6456693 32.64658
vt -0.6456693 32.64658
vt 0.6456693 35.30061
vt -0.6456693 35.30061
vt 1.771654 0.6456693
vt 1.771654 -0.6456693
vt 1.771654 13.38583
vt 2.165354 16.0105

usemtl wood

f 3/3/1 2/2/1 1/1/1
f 2/2/1 3/3/1 4/4/1
f 7/7/2 6/6/2 5/5/2
f 6/6/2 7/7/2 8/8/2
f 4/11/3 8/10/3 7/9/3
f 8/10/3 4/11/3 3/12/3
f 11/3/2 10/2/2 9/1/2
f 10/2/2 11/3/2 12/4/2
f 10/15/4 14/14/4 13/13/4
f 14/14/4 10/15/4 12/16/4
f 14/7/1 15/6/1 13/5/1
f 15/6/1 14/7/1 16/8/1
f 7/14/5 2/15/5 4/16/5
f 2/15/5 7/14/5 5/13/5
f 16/19/3 12/18/3 11/17/3
f 12/18/3 16/19/3 14/20/3
f 16/16/5 17/21/5 15/15/5
f 18/22/5 15/15/5 17/21/5
f 15/15/5 18/22/5 9/13/5
f 17/21/5 16/16/5 11/14/5
f 17/21/5 11/14/5 19/23/5
f 19/23/5 11/14/5 20/24/5
f 18/22/5 17/21/5 21/25/5
f 9/13/5 18/22/5 22/26/5
f 9/13/5 22/26/5 11/14/5
f 23/27/5 11/14/5 22/26/5
f 20/24/5 24/28/5 21/25/5
f 18/22/5 21/25/5 24/28/5
f 24/28/5 20/24/5 25/29/5
f 20/24/5 11/14/5 25/29/5
f 18/22/5 24/28/5 26/30/5
f 25/29/5 11/14/5 27/31/5
f 28/32/5 11/14/5 23/27/5
f 29/33/5 28/32/5 23/27/5
f 30/34/5 11/14/5 28/32/5
f 27/31/5 11/14/5 30/34/5
f 28/32/5 29/33/5 31/35/5
f 18/22/5 31/35/5 29/33/5
f 32/36/5 27/31/5 30/34/5
f 27/31/5 32/36/5 26/30/5
f 18/22/5 32/36/5 31/35/5
f 18/22/5 26/30/5 32/36/5
f 34/26/4 6/15/4 33/22/4
f 33/22/4 6/15/4 35/33/4
f 34/26/4 1/13/4 6/15/4
f 1/13/4 34/26/4 3/14/4
f 36/23/4 3/14/4 34/26/4
f 36/23/4 34/26/4 37/27/4
f 3/14/4 36/23/4 8/16/4
f 35/33/4 38/32/4 37/27/4
f 36/23/4 37/27/4 38/32/4
f 38/32/4 35/33/4 39/35/4
f 35/33/4 6/15/4 39/35/4
f 36/23/4 38/32/4 40/34/4
f 39/35/4 6/15/4 41/36/4
f 8/16/4 36/23/4 42/21/4
f 8/16/4 42/21/4 6/15/4
f 43/25/4 6/15/4 42/21/4
f 36/23/4 40/34/4 44/31/4
f 41/36/4 44/31/4 40/34/4
f 36/23/4 44/31/4 45/29/4
f 44/31/4 41/36/4 46/30/4
f 41/36/4 6/15/4 46/30/4
f 36/23/4 45/29/4 47/24/4
f 46/30/4 6/15/4 48/28/4
f 48/28/4 6/15/4 43/25/4
f 48/28/4 47/24/4 45/29/4
f 47/24/4 48/28/4 43/25/4

usemtl woodDark

f 32/39/1 49/38/1 31/37/1
f 49/38/1 32/39/1 50/40/1
f 52/43/3 19/42/3 51/41/3
f 19/42/3 52/43/3 17/44/3
f 24/47/1 44/46/1 26/45/1
f 44/46/1 24/47/1 45/48/1
f 53/49/6 47/44/6 43/42/6
f 47/44/6 53/49/6 54/50/6
f 55/53/7 49/52/7 50/51/7
f 49/52/7 55/53/7 56/54/7
f 17/57/1 57/56/1 21/55/1
f 57/56/1 17/57/1 52/58/1
f 48/47/2 27/46/2 46/45/2
f 27/46/2 48/47/2 25/48/2
f 50/60/3 30/42/3 55/59/3
f 30/42/3 50/60/3 32/44/3
f 36/63/3 58/62/3 42/61/3
f 58/62/3 36/63/3 59/64/3
f 61/67/1 34/66/1 60/65/1
f 34/66/1 61/67/1 37/68/1
f 62/71/8 61/70/8 60/69/8
f 61/70/8 62/71/8 63/72/8
f 42/57/2 53/73/2 43/55/2
f 53/73/2 42/57/2 58/74/2
f 66/77/9 65/76/9 64/75/9
f 65/76/9 66/77/9 67/78/9
f 51/81/2 20/80/2 68/79/2
f 20/80/2 51/81/2 19/82/2
f 53/85/10 59/84/10 54/83/10
f 59/84/10 53/85/10 58/86/10
f 35/89/2 62/88/2 33/87/2
f 62/88/2 35/89/2 63/90/2
f 59/92/1 47/80/1 54/91/1
f 47/80/1 59/92/1 36/82/1
f 66/50/3 23/42/3 67/49/3
f 23/42/3 66/50/3 29/44/3
f 55/95/2 28/94/2 56/93/2
f 28/94/2 55/95/2 30/96/2
f 45/63/3 25/42/3 48/61/3
f 25/42/3 45/63/3 24/44/3
f 20/61/6 57/98/6 68/97/6
f 57/98/6 20/61/6 21/63/6
f 62/99/6 34/44/6 33/42/6
f 34/44/6 62/99/6 60/100/6
f 67/102/2 22/66/2 65/101/2
f 22/66/2 67/102/2 23/68/2
f 40/63/3 69/103/3 41/61/3
f 69/103/3 40/63/3 70/104/3
f 37/63/3 63/97/3 35/61/3
f 63/97/3 37/63/3 61/98/3
f 29/89/1 64/105/1 18/87/1
f 64/105/1 29/89/1 66/106/1
f 71/109/11 69/108/11 70/107/11
f 69/108/11 71/109/11 72/110/11
f 27/61/6 44/44/6 46/42/6
f 44/44/6 27/61/6 26/63/6
f 22/61/6 64/64/6 65/62/6
f 64/64/6 22/61/6 18/63/6
f 70/112/1 38/94/1 71/111/1
f 38/94/1 70/112/1 40/96/1
f 52/115/12 68/114/12 57/113/12
f 68/114/12 52/115/12 51/116/12
f 28/61/6 49/100/6 56/99/6
f 49/100/6 28/61/6 31/63/6
f 72/117/6 38/44/6 39/42/6
f 38/44/6 72/117/6 71/118/6
f 41/39/2 72/119/2 39/37/2
f 72/119/2 41/39/2 69/120/2

usemtl _defaultMat

f 6/66/6 2/67/6 5/68/6
f 2/66/6 6/67/6 1/68/6
f 10/88/6 15/89/6 9/90/6
f 15/88/6 10/89/6 13/90/6

