# Created by Kenney (www.kenney.nl)

mtllib ladder.mtl

g ladder

v 0.11 0.9066665 0.0164
v -0.11 0.9066665 0.0164
v 0.11 0.9066665 -0.0164
v -0.11 0.9066665 -0.0164
v 0.11 0.09 0.0164
v -0.11 0.09 0.0164
v 0.11 0.1566667 0.0164
v -0.11 0.1566667 0.0164
v 0.11 0.59 0.0164
v -0.11 0.59 0.0164
v 0.11 0.6566666 0.0164
v -0.11 0.6566666 0.0164
v 0.11 0.34 0.0164
v 0.11 0.34 -0.0164
v -0.11 0.34 0.0164
v -0.11 0.34 -0.0164
v 0.11 0.09 -0.0164
v -0.11 0.09 -0.0164
v 0.11 0.59 -0.0164
v -0.11 0.59 -0.0164
v 0.11 0.4066666 0.0164
v -0.11 0.4066666 0.0164
v 0.11 0.6566666 -0.0164
v -0.11 0.6566666 -0.0164
v -0.11 0.84 -0.0164
v 0.11 0.84 -0.0164
v 0.11 0.84 0.0164
v -0.11 0.84 0.0164
v -0.11 0.4066666 -0.0164
v 0.11 0.4066666 -0.0164
v -0.11 0.1566667 -0.0164
v 0.11 0.1566667 -0.0164
v 0.19 -5.639933E-18 0.04
v 0.11 -5.639933E-18 0.04
v 0.19 1 0.04
v 0.11 1 0.04
v 0.19 1 -0.04
v 0.19 -5.639933E-18 -0.04
v -0.19 -5.639933E-18 -0.04
v -0.11 -5.639933E-18 -0.04
v -0.19 1 -0.04
v -0.11 1 -0.04
v -0.19 -5.639933E-18 0.04
v -0.19 1 0.04
v -0.11 -5.639933E-18 0.04
v -0.11 1 0.04
v 0.11 -5.639933E-18 -0.04
v 0.11 1 -0.04

vn 0 1 0
vn 0 0 1
vn 0 -1 0
vn 0 0 -1
vn 1 0 0
vn -1 0 0

vt -4.330709 0.6456692
vt 4.330709 0.6456693
vt -4.330709 -0.6456693
vt 4.330709 -0.6456692
vt 4.330709 3.543307
vt -4.330709 3.543307
vt 4.330709 6.16798
vt -4.330709 6.16798
vt 4.330709 23.22835
vt -4.330709 23.22835
vt 4.330709 25.85302
vt -4.330709 25.85302
vt 4.330709 0.6456692
vt 4.330709 -0.6456693
vt -4.330709 0.6456693
vt -4.330709 -0.6456692
vt 4.330709 13.38583
vt -4.330709 13.38583
vt 4.330709 16.0105
vt -4.330709 16.0105
vt 4.330709 33.07087
vt -4.330709 33.07087
vt 4.330709 35.69553
vt -4.330709 35.69553
vt 7.480315 -2.220446E-16
vt 4.330709 -2.220446E-16
vt 7.480315 39.37008
vt 4.330709 39.37008
vt 1.574803 39.37008
vt 1.574803 -2.220446E-16
vt -1.574803 39.37008
vt -1.574803 -2.220446E-16
vt -4.330709 -2.220446E-16
vt -7.480315 -2.220446E-16
vt -4.330709 39.37008
vt -7.480315 39.37008
vt 4.330709 1.574803
vt 7.480315 1.574803
vt 4.330709 -1.574803
vt 7.480315 -1.574803
vt -7.480315 1.574803
vt -4.330709 1.574803
vt -7.480315 -1.574803
vt -4.330709 -1.574803
vt -0.6456693 3.543307
vt -0.6456693 35.69553
vt 0.6456693 3.543307
vt 0.6456693 6.16798
vt -0.6456693 6.16798
vt 0.6456693 35.69553
vt 0.6456693 33.07087
vt -0.6456693 13.38583
vt 0.6456693 13.38583
vt -0.6456693 16.0105
vt 0.6456693 16.0105
vt 0.6456693 25.85302
vt -0.6456693 33.07087
vt 0.6456693 23.22835
vt -0.6456693 25.85302
vt -0.6456693 23.22835

usemtl woodDark

f 3/3/1 2/2/1 1/1/1
f 2/2/1 3/3/1 4/4/1
f 7/7/2 6/6/2 5/5/2
f 6/6/2 7/7/2 8/8/2
f 11/11/2 10/10/2 9/9/2
f 10/10/2 11/11/2 12/12/2
f 15/15/3 14/14/3 13/13/3
f 14/14/3 15/15/3 16/16/3
f 6/15/3 17/14/3 5/13/3
f 17/14/3 6/15/3 18/16/3
f 10/15/3 19/14/3 9/13/3
f 19/14/3 10/15/3 20/16/3
f 21/19/2 15/18/2 13/17/2
f 15/18/2 21/19/2 22/20/2
f 23/3/1 12/2/1 11/1/1
f 12/2/1 23/3/1 24/4/1
f 24/11/4 19/10/4 20/9/4
f 19/10/4 24/11/4 23/12/4
f 4/23/4 26/22/4 25/21/4
f 26/22/4 4/23/4 3/24/4
f 28/15/3 26/14/3 27/13/3
f 26/14/3 28/15/3 25/16/3
f 29/19/4 14/18/4 16/17/4
f 14/18/4 29/19/4 30/20/4
f 31/7/4 17/6/4 18/5/4
f 17/6/4 31/7/4 32/8/4
f 30/3/1 22/2/1 21/1/1
f 22/2/1 30/3/1 29/4/1
f 1/23/2 28/22/2 27/21/2
f 28/22/2 1/23/2 2/24/2
f 32/3/1 8/2/1 7/1/1
f 8/2/1 32/3/1 31/4/1

usemtl wood

f 35/27/2 34/26/2 33/25/2
f 34/26/2 35/27/2 36/28/2
f 35/31/5 38/30/5 37/29/5
f 38/30/5 35/31/5 33/32/5
f 41/27/4 40/26/4 39/25/4
f 40/26/4 41/27/4 42/28/4
f 43/30/6 41/31/6 39/32/6
f 41/31/6 43/30/6 44/29/6
f 46/35/2 43/34/2 45/33/2
f 43/34/2 46/35/2 44/36/2
f 48/35/4 38/34/4 47/33/4
f 38/34/4 48/35/4 37/36/4
f 42/39/1 44/38/1 46/37/1
f 44/38/1 42/39/1 41/40/1
f 37/43/1 36/42/1 35/41/1
f 36/42/1 37/43/1 48/44/1
f 47/32/6 17/45/6 48/31/6
f 3/46/6 48/31/6 17/45/6
f 48/31/6 3/46/6 36/29/6
f 17/45/6 47/32/6 34/30/6
f 17/45/6 34/30/6 5/47/6
f 5/47/6 34/30/6 7/48/6
f 3/46/6 17/45/6 32/49/6
f 36/29/6 3/46/6 1/50/6
f 36/29/6 1/50/6 34/30/6
f 27/51/6 34/30/6 1/50/6
f 7/48/6 14/52/6 32/49/6
f 3/46/6 32/49/6 14/52/6
f 14/52/6 7/48/6 13/53/6
f 7/48/6 34/30/6 13/53/6
f 3/46/6 14/52/6 30/54/6
f 13/53/6 34/30/6 21/55/6
f 11/56/6 34/30/6 27/51/6
f 26/57/6 11/56/6 27/51/6
f 9/58/6 34/30/6 11/56/6
f 21/55/6 34/30/6 9/58/6
f 11/56/6 26/57/6 23/59/6
f 3/46/6 23/59/6 26/57/6
f 19/60/6 21/55/6 9/58/6
f 21/55/6 19/60/6 30/54/6
f 3/46/6 19/60/6 23/59/6
f 3/46/6 30/54/6 19/60/6
f 42/29/5 4/50/5 40/30/5
f 18/47/5 40/30/5 4/50/5
f 40/30/5 18/47/5 45/32/5
f 4/50/5 42/29/5 46/31/5
f 4/50/5 46/31/5 2/46/5
f 2/46/5 46/31/5 28/57/5
f 18/47/5 4/50/5 25/51/5
f 45/32/5 18/47/5 6/45/5
f 45/32/5 6/45/5 46/31/5
f 8/49/5 46/31/5 6/45/5
f 28/57/5 24/56/5 25/51/5
f 18/47/5 25/51/5 24/56/5
f 24/56/5 28/57/5 12/59/5
f 28/57/5 46/31/5 12/59/5
f 18/47/5 24/56/5 20/58/5
f 12/59/5 46/31/5 10/60/5
f 15/52/5 46/31/5 8/49/5
f 31/48/5 15/52/5 8/49/5
f 22/54/5 46/31/5 15/52/5
f 10/60/5 46/31/5 22/54/5
f 15/52/5 31/48/5 16/53/5
f 18/47/5 16/53/5 31/48/5
f 29/55/5 10/60/5 22/54/5
f 10/60/5 29/55/5 20/58/5
f 18/47/5 29/55/5 16/53/5
f 18/47/5 20/58/5 29/55/5

usemtl _defaultMat

f 43/56/3 40/57/3 45/59/3
f 40/56/3 43/57/3 39/59/3
f 34/2/3 38/3/3 33/4/3
f 38/2/3 34/3/3 47/4/3

